
  <svg
    width="100%"
    height="100%"
    viewBox="0 0 1000 1000"
    xmlns="http://www.w3.org/2000/svg"
  >
  <defs>
      
    <filter id='doodle'>
      <feTurbulence 
        result="TURBULENCE" 
        baseFrequency="0.0658107527396688" 
        numOctaves="1" 
        seed="1" 
      />
      <feDisplacementMap in="SourceGraphic" in2="TURBULENCE" scale="20" />
    </filter>

    <filter id="offset-1">
      <feOffset dx="30" dy="0" result="OFFSET-1"/>
    </filter>

    <filter id="offset-2">
      <feOffset dx="20" dy="0" result="OFFSET-2"/>
    </filter>

    <filter id="offset-3">
      <feOffset dx="0" dy="50" result="OFFSET-3"/>
    </filter>

    <mask id="brush-mask">
      <rect x="0" y="0" width="1000" height="1000" fill="white" filterUnits="userSpaceOnUse"/>
      
  <circle 
    cx='250' 
    cy='611' 
    r='5px' 
    fill='black'  
    filter='url(#doodle)'
  />
  <circle 
    cx='490' 
    cy='315' 
    r='9px' 
    fill='black'  
    filter='url(#doodle)'
  />
  <circle 
    cx='462' 
    cy='436' 
    r='6px' 
    fill='black'  
    filter='url(#doodle)'
  />
  <circle 
    cx='764' 
    cy='530' 
    r='11px' 
    fill='black'  
    filter='url(#doodle)'
  />
  
      
    <g filter="url(#offset-1)" mask="url(#brush-mask)">
      <path
        fill="none"
        stroke-width="9px"
        stroke="black"
        d="M673.5 680.5 Q 465.75 756.5 258 680.5"
        filter="url(#doodle)"    
      />
    </g>
    <g filter="url(#offset-2)" mask="url(#brush-mask)"  transform="scale(0.6)" transform-origin="center">
      <path
        fill="none"
        stroke-width="6px"
        stroke="black"
        d="M673.5 680.5 Q 465.75 795.5 258 680.5"
        filter="url(#doodle)"
      />
    </g>


    <g filter="url(#offset-3)">
      <path
        fill="none"
        stroke-width="8px"
        stroke="black"
        d="M258 263 Q 465.75 177 673.5 263"
        filter="url(#doodle)"
      />
    </g>


    </mask>

      
      
      <clipPath id="shape">
        <path fill="currentColor" d="M673.5,680.5Q500,861,258,680.5Q16,500,258,263Q500,26,673.5,263Q847,500,673.5,680.5Z"></path>
      </clipPath> 
    </defs>
  
    <g  mask="url(#brush-mask)">
      <path
        filter='url(#doodle)'
        fill="#ffc679"
        d="M673.5,680.5Q500,861,258,680.5Q16,500,258,263Q500,26,673.5,263Q847,500,673.5,680.5Z"  
      />
    </g>
  
  </svg>